<svg id="Layer_1" data-name="Layer 1" xmlns="http://www.w3.org/2000/svg" viewBox="0 0 240 78"><defs><style>.cls-1{fill:#fff;}</style></defs><title>asaas-white</title><path class="cls-1" d="M26.58,41.72a3.45,3.45,0,0,0-5.65,0L.41,73.89l0,0A2.76,2.76,0,0,0,0,75.36,2.86,2.86,0,0,0,3.09,78a3.17,3.17,0,0,0,2.76-1.45L11.26,68h25l5.44,8.55A3.18,3.18,0,0,0,44.53,78a2.86,2.86,0,0,0,3.09-2.64,2.48,2.48,0,0,0-.49-1.52Zm-12,21,9.21-14.64L33,62.73Z"/><path class="cls-1" d="M74.71,55.88H65.88c-5.51,0-8.3-1.08-8.3-3.21V49c0-2.65,4.73-3.21,8.7-3.21h6.09c2.28,0,3.09-1.36,3.09-2.64s-.81-2.64-3.09-2.64H66.23c-12.37,0-15,4.59-15,8.43v3.85a7,7,0,0,0,4,6.42c2.43,1.29,5.88,1.91,10.54,1.91h9c7.93,0,9.6,1.88,9.6,3.46V69c0,2.9-5.33,3.51-9.8,3.51H54.19c-2.31,0-3.14,1.42-3.14,2.64s.82,2.64,3.14,2.64H74.61c10.69,0,16.12-2.92,16.12-8.68V64.51C90.73,58.78,85.34,55.88,74.71,55.88Z"/><path class="cls-1" d="M175.85,41.72a3.45,3.45,0,0,0-5.65,0L149.68,73.89l0,0a2.76,2.76,0,0,0-.39,1.44A2.86,2.86,0,0,0,152.36,78a3.17,3.17,0,0,0,2.76-1.45l5.42-8.6h25L191,76.51A3.18,3.18,0,0,0,193.8,78a2.86,2.86,0,0,0,3.09-2.64,2.48,2.48,0,0,0-.49-1.52Zm-12,21L173,48.09l9.25,14.64Z"/><path class="cls-1" d="M224,55.88h-8.84c-5.51,0-8.3-1.08-8.3-3.21V49c0-2.65,4.73-3.21,8.7-3.21h6.09c2.28,0,3.09-1.36,3.09-2.64s-.81-2.64-3.09-2.64H215.5c-12.37,0-15,4.59-15,8.43v3.85a7,7,0,0,0,4,6.42c2.43,1.29,5.88,1.91,10.54,1.91h9c7.93,0,9.6,1.88,9.6,3.46V69c0,2.9-5.33,3.51-9.8,3.51H203.47c-2.31,0-3.14,1.42-3.14,2.64s.82,2.64,3.14,2.64h20.42c10.69,0,16.12-2.92,16.12-8.68V64.51C240,58.78,234.61,55.88,224,55.88Z"/><path class="cls-1" d="M166.12,1.89c-.32-.55-1.36-2.3-2.23-1.79-3.45,2,1.42,3.05-22.77,17.38-2.88,1.71-27.47,16.66-17.07,34.23,1.51,2.56,4.95,8.25,6.63,11H109.3c1.68-2.78,5.11-8.47,6.63-11,10.4-17.57-14.19-32.53-17.07-34.23C74.67,3.14,79.54,2.14,76.09.09c-.86-.51-1.9,1.24-2.23,1.79C71.64,5.63,73.57,20.77,81,25.18c-2,3.46,1.62,13.14,9.29,17.68-3.19,5.4,2,11.38,14,19l-7.67,12,0,0a2.76,2.76,0,0,0-.39,1.44A2.86,2.86,0,0,0,99.32,78a3.17,3.17,0,0,0,2.76-1.45L107.5,68h25L138,76.51A3.18,3.18,0,0,0,140.77,78a2.86,2.86,0,0,0,3.09-2.64,2.48,2.48,0,0,0-.49-1.52l-7.67-12c12-7.61,17.18-13.59,14-19C157.35,38.32,161,28.64,159,25.18,166.41,20.77,168.34,5.63,166.12,1.89Z"/></svg>