<svg data-name="Layer 1" xmlns="http://www.w3.org/2000/svg" viewBox="0 0 310 310"><path d="M287.38 90.18C301.27 73.69 308 52.43 306 31.81c-.57-3.82-2.19-10.69-6.7-13.69a16.51 16.51 0 0 0-1.69-.89 8.55 8.55 0 0 0-3.84-.77.6.6 0 0 0-.47.26c-8 11.45-23.33 29.21-51.31 48.79-14.19 9.92-25.19 16.61-34.38 22.11l-2.48 1.48c-2.65 1.58-5.05 3-7.31 4.4a113.05 113.05 0 0 0-11.47 8.63c-7.74 6.91-22.87 23.07-25.17 45.67 0 0-2.67 18.2 9.05 42.35L184.3 216l6.7 12.24 1.17 2.15a1 1 0 0 1 .06 1 1 1 0 0 1-.71.58 196.66 196.66 0 0 1-73-.23 1 1 0 0 1-.71-.58 1.06 1.06 0 0 1 .06-.95l1.32-2.42 20.29-37.13c12-24.39 9.28-42.83 9.28-42.83-2.37-23.2-18.25-39.63-25.78-46.21a114.29 114.29 0 0 0-10.83-8.09c-2.26-1.39-4.66-2.82-7.31-4.4l-2.48-1.48c-9.19-5.5-20.19-12.19-34.38-22.11-28-19.58-43.35-37.34-51.31-48.79a.6.6 0 0 0-.47-.26 8.55 8.55 0 0 0-3.84.77 16.51 16.51 0 0 0-1.69.89C6.23 21.12 4.61 28 4 31.81 2 52.43 8.73 73.69 22.62 90.18a1 1 0 0 1 .2 1c-7.3 23.58 2 51.24 22.63 67.27l7.72 7.53a1 1 0 0 1 .31.79c-1.18 20.4 9.75 40.5 27.85 51.2l11.31 6.69A1 1 0 0 1 93 226l-.49.78h.07l-26.39 45-.07.09-9.46 15.95a3.84 3.84 0 0 0-.53 2 3.68 3.68 0 0 0 3.52 3.74H78a5.43 5.43 0 0 0 4.68-2.72L104 254.06a1 1 0 0 1 1.05-.47 213.83 213.83 0 0 0 100.22.25 1 1 0 0 1 1 .46l15.41 26a.36.36 0 0 0 0 .09l6.18 10.45a5.43 5.43 0 0 0 4.68 2.71h18a3.67 3.67 0 0 0 3.51-3.74 3.94 3.94 0 0 0-.52-2l-36.09-61-.46-.74a1 1 0 0 1 .35-1.41l11.31-6.69c18.1-10.7 29-30.8 27.85-51.2a1 1 0 0 1 .31-.79l7.72-7.53c20.63-16 29.93-43.69 22.63-67.27a1 1 0 0 1 .23-1Z" style="fill:#fff"/></svg>