<svg width="131" height="51" viewBox="0 0 131 51" fill="none" xmlns="http://www.w3.org/2000/svg">
<path d="M0.203088 29.5702C0.203088 32.3934 0.102798 35.4272 0 37.072H6.6267L6.9376 33.5768H7.03789C8.78545 36.5555 11.6638 37.6436 14.5923 37.6436C20.3464 37.6436 26.0505 33.113 26.0505 24.0693C26.1031 16.3595 21.7355 11.3775 15.7205 11.3775C12.2279 11.3775 9.60532 12.7666 8.11601 14.9228H8.01572V0.53363H0.203088V29.5677V29.5702ZM8.01572 22.6828C8.01339 22.1981 8.06469 21.7146 8.16866 21.2411C8.68265 18.9821 10.6358 17.39 12.7444 17.39C16.39 17.39 18.1375 20.4714 18.1375 24.3752C18.1375 28.8983 16.0816 31.4707 12.7444 31.4707C10.4829 31.4707 8.68265 29.826 8.16866 27.77C8.06173 27.3149 8.01038 26.8485 8.01572 26.381V22.6828ZM27.2013 37.072H35.0114V0.53363H27.2013V37.072V37.072ZM45.4065 37.072V11.9442H37.5989V37.072H45.4065ZM41.5554 1.05013C39.0356 1.05013 37.3933 2.74253 37.3933 4.95394C37.3933 7.11018 38.9854 8.85774 41.4501 8.85774C44.0727 8.85774 45.6648 7.11018 45.6648 4.95394C45.6146 2.74253 44.0727 1.05013 41.5529 1.05013H41.5554ZM47.9414 37.072H55.754V22.58C55.7237 21.9198 55.8103 21.2594 56.0097 20.6293C56.5739 19.1902 57.8601 17.6984 60.0189 17.6984C62.8445 17.6984 63.9753 19.9073 63.9753 23.1441V37.072H71.7854V22.2189C71.7854 14.82 67.9318 11.3775 62.7919 11.3775C58.5797 11.3775 56.0624 13.792 55.0319 15.4368H54.8815L54.5204 11.9442H47.7383C47.8386 14.2032 47.9414 16.8258 47.9414 19.9574V37.072V37.072ZM98.1117 19.4459C98.1117 15.695 98.217 13.5864 98.3198 11.9442H91.5351L91.2769 14.978H91.1766C89.8929 12.8719 87.7316 11.3775 84.2917 11.3775C78.0737 11.3775 72.8836 16.5174 72.8836 24.6334C72.8836 31.8293 77.3039 36.8639 83.5194 36.8639C86.3953 36.8639 88.8148 35.6855 90.3041 33.6295H90.4044V35.2216C90.4044 39.9052 87.5787 41.8608 83.8805 41.8608C81.3265 41.8465 78.8169 41.1913 76.5818 39.9553L75.0424 45.9201C77.3014 47.1512 80.7439 47.8206 84.0861 47.8206C87.7843 47.8206 91.5352 47.0985 94.2605 44.7367C97.1364 42.2169 98.1117 38.2629 98.1117 33.4214V19.4459V19.4459ZM90.3041 25.8695C90.3229 26.5805 90.2358 27.2903 90.0458 27.9756C89.7952 28.8841 89.2511 29.6841 88.4982 30.251C87.7454 30.8179 86.8261 31.1198 85.8838 31.1097C82.6469 31.1097 80.7965 28.1787 80.7965 24.4278C80.7965 19.8571 83.0581 17.2872 85.9364 17.2872C88.0927 17.2872 89.587 18.6737 90.1511 20.7296C90.252 21.2019 90.3033 21.6834 90.3041 22.1663V25.8695V25.8695Z" fill="#0BD692"/>
<path d="M130.867 3.87581C128.251 6.45328 125.508 10.1039 122.638 14.8275C119.786 19.5101 117.321 24.4172 115.266 29.5C114.2 32.1224 113.303 34.8108 112.581 37.5483C111.423 37.4163 109.972 37.2909 108.229 37.1723C106.656 37.0649 105.078 37.0574 103.505 37.1497C103.097 32.0299 103.55 26.0684 104.864 19.2654C105.623 15.344 106.492 12.1765 107.471 9.76286C108.093 8.2234 108.72 7.10517 109.347 6.38809C106.541 5.72617 104.525 5.2874 103.279 5.08431C103.279 4.39983 103.623 3.23395 104.3 1.56913C104.499 1.06173 104.741 0.57193 105.022 0.104888C105.069 -0.0129537 105.192 -0.0305046 105.39 0.0472206C105.42 0.0572496 105.576 0.134975 105.834 0.262845C106.105 0.393223 106.298 0.483484 106.436 0.538644C108.918 1.54489 112.9 2.38232 118.38 3.05092C123.679 3.68609 127.788 3.8733 130.709 3.61255C130.759 3.6346 130.802 3.67172 130.83 3.71883C130.859 3.76594 130.873 3.82075 130.869 3.87581H130.867ZM111.849 48.2168C111.398 49.3275 109.753 49.9668 106.93 50.1499C104.511 50.2879 102.085 50.1007 99.7163 49.5932C98.8669 49.4237 98.0344 49.1778 97.2291 48.8586C95.3738 48.1098 94.0474 47.03 93.2501 45.6192C92.4578 44.2118 92.3166 42.8796 92.8264 41.6227C93.4131 40.1735 95.2409 39.4915 98.3073 39.6168C100.776 39.7134 103.211 40.2306 105.506 41.1463C107.908 42.1241 109.69 43.3217 110.854 44.7392C111.927 46.0279 112.263 47.1963 111.849 48.2168V48.2168Z" fill="#0BD692"/>
</svg>
