<?xml version="1.0" encoding="UTF-8"?><svg id="a" xmlns="http://www.w3.org/2000/svg" xmlns:xlink="http://www.w3.org/1999/xlink" viewBox="0 0 310 310"><defs><style>.j{fill:none;}.k{clip-path:url(#c);}.l{clip-path:url(#f);}.m{clip-path:url(#e);}.n{clip-path:url(#d);}.o{clip-path:url(#i);}.p{clip-path:url(#h);}.q{clip-path:url(#g);}</style><clipPath id="c"><rect class="j" x="-54.2" y="-47.3" width="418.41" height="404.6"/></clipPath><clipPath id="d"><rect class="j" x="-54.2" y="-47.3" width="418.41" height="404.6"/></clipPath><clipPath id="e"><rect class="j" x="-54.2" y="-47.3" width="418.41" height="404.6"/></clipPath><clipPath id="f"><rect class="j" x="-54.2" y="-47.3" width="418.41" height="404.6"/></clipPath><clipPath id="g"><rect class="j" x="-54.2" y="-47.3" width="418.41" height="404.6"/></clipPath><clipPath id="h"><rect class="j" x="-54.2" y="-47.3" width="418.41" height="404.6"/></clipPath><clipPath id="i"><rect class="j" x="-54.2" y="-47.3" width="418.41" height="404.6"/></clipPath></defs><g id="b"><g class="k"><g><g class="n"><path d="M276.93,14.84c-10.47-3.03-24.28-4.54-41.43-4.54s-30.97,1.52-41.43,4.54c-10.47,3.03-18.08,7.52-22.84,13.46-4.76,5.94-7.14,13.32-7.14,22.13s2.38,16.19,7.14,22.13c4.76,5.94,12.38,10.43,22.84,13.45,10.47,3.03,24.28,4.54,41.43,4.54s30.97-1.52,41.43-4.54c10.47-3.03,18.08-7.51,22.84-13.45,4.76-5.94,7.14-13.32,7.14-22.13s-2.38-16.19-7.14-22.13c-4.76-5.94-12.38-10.43-22.84-13.46m-6.73,46.51c-3.23,2.56-7.79,4.33-13.69,5.31-5.9,.99-12.91,1.48-21.01,1.48s-15.21-.49-21.31-1.48c-6.1-.98-10.86-2.75-14.28-5.31-3.42-2.56-5.13-6.2-5.13-10.92s1.71-8.36,5.13-10.92c3.42-2.56,8.18-4.33,14.28-5.31,6.1-.98,13.2-1.48,21.31-1.48s15.11,.49,21.01,1.48c5.9,.99,10.47,2.76,13.69,5.31,3.23,2.56,4.84,6.2,4.84,10.92s-1.61,8.36-4.84,10.92"/></g><g class="m"><polygon points="113.48 12.65 35.58 58.59 35.58 12.65 6.07 12.65 6.07 88.2 35.58 88.2 74.33 65.17 113.3 88.2 162.56 88.2 99.12 50.45 162.74 12.65 113.48 12.65"/></g><g class="l"><path d="M116.77,157.38c-4.8-1.4-8.93-1.76-13.16-1.91-.73-.02-2.52-.01-6.05,.01,0,0-11.06,.08-11.06,.05,0-.03,9.51,.25,20.54-1.63,5.79-.98,10.23-2.73,13.34-5.25,3.11-2.52,4.66-6.14,4.66-10.86,0-7.4-3.62-12.59-10.86-15.58-7.24-2.99-18.49-4.49-33.76-4.49H6.05v75.55H86.31c8.65,0,16.17-.77,22.55-2.3,6.37-1.54,11.29-3.87,14.76-7.02,3.46-3.15,5.19-7.16,5.19-12.04,0-4.01-1.06-7.16-3.19-9.44-2.13-2.28-5.08-3.97-8.85-5.07m-81.21-17.47h45.8c4.17,0,7.18,.37,9.03,1.12,1.85,.75,2.77,2.03,2.77,3.83s-.93,2.99-2.77,3.78c-1.85,.79-4.86,1.18-9.03,1.18H35.56v-9.91Zm59.79,29.98c-1.85,.79-4.86,1.18-9.03,1.18H35.56v-9.92h50.76c2.75,0,5,.18,6.73,.53,1.73,.35,3.01,.88,3.84,1.59,.83,.71,1.24,1.65,1.24,2.83,0,1.73-.93,2.99-2.77,3.77"/></g><g class="q"><path d="M181.81,117.72l-50.64,75.54h32.46l7.35-11.45h54.88l7.41,11.45h32.46l-51.11-75.54h-32.81Zm.54,46.39l15.96-24.84,16.08,24.84h-32.04Z"/></g><g class="p"><polygon points="113.48 268.67 35.58 222.74 6.07 222.74 6.07 298.28 35.58 298.28 35.58 253.17 113.48 298.28 142.99 298.28 142.99 222.74 113.48 222.74 113.48 268.67"/></g><g class="o"><path d="M254.54,298.28h32.46l-51.11-75.54h-32.81l-50.64,75.54h32.46l7.35-11.45h54.88l7.41,11.45Zm-50.92-29.15l15.96-24.84,16.08,24.84h-32.04Z"/></g></g></g></g></svg>