<svg viewBox="0 0 310 310" xmlns="http://www.w3.org/2000/svg"><path d="M192.67 19.37H92.79a13.14 13.14 0 0 0-13.14 13.14v54.7h113z" fill="#199255"/><path d="M79.65 223.22v54.27a13.14 13.14 0 0 0 13.13 13.14h99.89v-67.41z" fill="#19492b"/><path d="M79.65 87.21h113V155h-113z" fill="#118145"/><path d="M79.65 155h113v68.19h-113z" fill="#18482a"/><path d="M292.56 19.37h-99.89v67.84h113v-54.7a13.15 13.15 0 0 0-13.11-13.14z" fill="#41b97e"/><path d="M192.67 223.22v67.41h99.89a13.15 13.15 0 0 0 13.14-13.14v-54.26h-113z" fill="#286740"/><path d="M192.67 87.21h113V155h-113z" fill="#19ac65"/><path d="M192.67 155h113v68.19h-113z" fill="#159752"/><path d="M142.33 230.35H17a12.68 12.68 0 0 1-12.7-12.67V92.32A12.68 12.68 0 0 1 17 79.65h125.33A12.67 12.67 0 0 1 155 92.32v125.36a12.67 12.67 0 0 1-12.67 12.67z" fill="#14733a"/><path d="M48.06 117.33H66l14.58 28.28L96 117.33h16.79L89.69 155l23.67 37.67H95.65l-15.9-29.61-15.83 29.61h-18L70 154.86z" fill="#fff"/></svg>