<svg width="354" height="266" viewBox="0 0 354 266" fill="none" xmlns="http://www.w3.org/2000/svg">
<path d="M0.982912 202.883C0.64913 201.418 0.1588 200.102 0.147802 198.781C0.0772265 190.309 -0.166547 181.825 0.18635 173.368C0.576114 164.026 1.94315 154.757 6.17239 146.258C10.8237 136.911 17.93 131.204 28.1728 128.881C28.1728 126.053 28.1728 123.193 28.1728 120.334C28.1728 109.993 28.0811 99.6521 28.1979 89.3132C28.3207 78.4449 32.0072 68.8486 38.9127 60.4329C44.8976 53.1392 52.3719 48.0456 61.3565 45.3043C64.6751 44.2918 68.2113 43.9906 71.6481 43.3638C78.2103 42.1671 84.5532 43.5962 90.7154 45.4645C96.0904 47.0942 101.002 49.9079 105.422 53.4566C111.379 58.2387 115.889 64.16 119.016 71.0937C120.801 75.0544 122.048 79.1055 122.038 83.6243C121.937 128.387 121.946 173.151 122.011 217.914C122.02 224.241 124.075 229.936 128.284 234.839C133.84 241.312 140.901 244.453 149.293 243.838C160.109 243.045 169.329 235.646 172.042 224.609C172.612 222.288 172.851 219.83 172.853 217.435C172.897 162.265 172.857 107.095 172.919 51.9247C172.928 43.2135 175.946 35.3314 180.737 28.1457C187.612 17.8359 197.274 11.2925 209.2 8.31271C213.411 7.26069 217.929 6.87418 222.275 7.03512C232.487 7.41331 241.837 10.7708 249.822 17.1864C258.591 24.2323 264.574 33.2129 266.638 44.413C267.394 48.5128 267.807 52.7306 267.839 56.8988C267.97 74.0425 267.946 91.1881 267.88 108.333C267.81 126.179 267.544 144.025 267.53 161.871C267.523 170.052 270.001 177.366 276.388 182.932C280.221 186.272 284.599 188.395 289.716 189.103C298.589 190.329 305.878 187.23 311.816 180.943C315.967 176.549 318.358 171.155 318.386 164.984C318.444 152.376 318.384 139.767 318.438 127.159C318.443 126.032 318.071 125.371 317.188 124.82C310.976 120.942 307.283 115.218 306.051 108.175C303.759 95.0794 311.363 82.0027 325.189 79.065C335.387 76.8983 345.815 81.9161 350.937 91.5025C352.855 95.0926 353.92 98.8942 353.995 102.792C354.168 111.883 350.009 121.101 340.452 125.993C340.452 138.425 340.231 150.902 340.516 163.368C340.78 174.876 337.167 185.013 330.149 193.826C323.428 202.267 314.584 207.804 303.958 210.291C299.175 211.411 294.3 211.872 289.446 211.433C280.261 210.603 271.897 207.501 264.45 201.897C255.988 195.529 250.343 187.28 247.415 177.198C246.555 174.236 245.92 171.085 245.912 168.018C245.811 130.26 245.95 92.501 245.785 54.7432C245.733 42.7145 238.13 32.8888 226.277 29.8871C217.806 27.742 210.026 29.8646 203.42 35.8636C197.595 41.1533 194.909 47.6612 194.914 55.4905C194.954 110.26 194.915 165.03 194.965 219.8C194.97 225.692 193.717 231.288 191.522 236.653C189.174 242.392 185.834 247.617 181.394 251.967C174.345 258.874 166.003 263.406 156.163 265.167C145.305 267.11 134.983 265.687 125.277 260.546C117.272 256.305 110.892 250.244 106.341 242.344C103.048 236.628 100.666 230.538 100.401 223.947C99.996 213.918 99.9455 203.87 99.9577 193.83C99.9738 180.586 100.19 167.343 100.331 154.1C100.457 142.325 100.585 130.549 100.734 118.774C100.849 109.733 101.084 100.693 101.109 91.6524C101.137 81.2621 96.5273 73.3171 87.5295 68.2422C78.471 63.1331 66.106 64.6035 58.4584 72.1131C52.8307 77.6393 50.1521 84.2066 50.2017 92.0442C50.2752 103.651 50.2207 115.26 50.2207 126.867C50.2207 127.53 50.2207 128.192 50.2207 128.875C58.0121 130.951 64.4515 135.114 69.6402 141.073C73.7313 145.771 76.307 151.375 77.4126 157.476C78.2832 162.28 78.9214 167.187 79.0026 172.059C79.1521 181.028 78.8882 190.007 78.6533 198.978C78.529 203.729 75.7424 206.897 70.8504 206.733C64.8445 206.532 58.8267 206.689 52.8141 206.683C49.4829 206.68 46.2765 203.564 46.2227 200.206C46.1725 197.072 46.0453 193.925 46.2537 190.803C46.5218 186.788 48.9211 184.252 53.2475 183.885C54.5641 183.774 55.8981 183.868 57.0433 183.868C57.0433 179.354 57.039 174.944 57.0446 170.534C57.0493 166.858 56.2816 163.354 55.075 159.877C52.807 153.341 47.5167 150.221 41.2152 149.852C37.9229 149.659 34.7014 150.027 31.6748 151.456C28.2932 153.052 26.0226 155.777 25.0413 159.241C23.9205 163.198 23.1278 167.284 22.6263 171.368C22.1285 175.421 22.1699 179.541 21.9728 183.674C23.8581 183.857 25.5162 183.827 27.0742 184.206C30.9637 185.154 32.8359 187.313 32.9379 191.235C33.0236 194.526 32.8371 197.838 32.5482 201.122C32.2707 204.275 29.461 206.668 26.2956 206.679C20.0158 206.7 13.7352 206.629 7.45636 206.71C4.51645 206.748 2.47803 205.481 0.982912 202.883ZM321.618 99.7222C320.006 103.416 320.579 106.888 323.12 109.869C327.908 115.482 336.031 113.472 338.44 106.517C339.846 102.458 337.494 96.6199 333.681 95.0418C328.665 92.9657 324.177 94.5837 321.618 99.7222Z" fill="white"/>
<path d="M153.364 0.102853C157.478 1.1646 161.49 1.99787 165.317 3.34389C170.316 5.10214 174.866 7.84021 178.734 11.4154C181.266 13.7558 181.859 17.5281 179.573 20.7575C178.166 22.7465 177.027 24.9217 175.608 26.9016C173.014 30.5194 168.013 31.7711 163.847 28.0968C159.747 24.4808 154.966 22.4182 149.421 21.9791C140.763 21.2936 133.702 24.3749 128.008 30.6365C124.536 34.4537 122.544 38.9837 121.96 44.1319C121.508 48.1233 120.794 50.4959 116.718 51.6166C114.221 52.3031 111.689 52.2035 109.508 50.1856C107.903 48.701 106.035 47.449 104.147 46.3166C100.893 44.3652 99.4133 41.517 100.213 37.926C102.016 29.8374 105.513 22.6168 110.992 16.2351C116.659 9.634 123.687 5.12015 131.807 2.30049C135.327 1.07795 139.16 0.557906 142.899 0.175693C146.292 -0.171085 149.75 0.102416 153.364 0.102853Z" fill="white"/>
<path d="M266.907 211.491C266.912 213.911 267.161 216.204 266.824 218.407C266.028 223.618 264.534 228.671 262.062 233.353C257.808 241.41 251.706 247.748 243.885 252.478C238.868 255.512 233.435 257.557 227.716 258.397C217.099 259.957 206.825 258.572 197.31 253.286C193.915 251.4 193.42 247.438 194.533 244.401C195.279 242.364 196.217 240.394 196.929 238.345C198.702 233.235 203.479 231.59 207.865 233.855C212 235.989 216.314 237.172 220.942 236.919C226.574 236.61 231.546 234.6 235.928 230.967C240.049 227.551 242.883 223.292 244.161 218.217C244.995 214.908 245.117 211.382 245.227 207.942C245.314 205.193 246.583 203.432 248.796 202.118C251.304 200.63 253.802 200.588 256.26 202.23C258.776 203.912 261.229 205.696 263.807 207.277C265.412 208.262 266.393 209.571 266.907 211.491Z" fill="white"/>
</svg>
