<svg id="Layer_1" data-name="Layer 1" xmlns="http://www.w3.org/2000/svg" viewBox="0 0 310 310"><defs><linearGradient id="linear-gradient" x1="226.36" y1="84.2" x2="226.36" y2="142.87" gradientUnits="userSpaceOnUse"><stop offset="0" stop-color="#0d7742"/><stop offset=".34" stop-color="#0b8c4d"/><stop offset=".68" stop-color="#099954"/><stop offset="1" stop-color="#099d56"/></linearGradient><style>.cls-1{fill:#0c9d57}.cls-2{fill:#7ecaa7}</style></defs><g id="GSheets"><path class="cls-1" d="m187 67-.11-.12a13.49 13.49 0 0 1-2.84-8.28V2.5H58.93a13.61 13.61 0 0 0-13.57 13.57v277.86a13.61 13.61 0 0 0 13.57 13.57h192.14a13.61 13.61 0 0 0 13.57-13.57V126.84l-76.55-58.68A13.65 13.65 0 0 1 187 67ZM264.63 88.17h.01-.01z"/><path class="cls-2" d="m201.21 84.2-1-1.19a13.65 13.65 0 0 0 1 1.19Z"/><path d="m200.06 82.89.11.12-.09-.12Z" style="fill:#0c7742"/><path d="M197.69 88.18a13.52 13.52 0 0 1-9.6-4l76.54 58.68V88.18h-66.94Z" style="fill:url(#linear-gradient)"/><path class="cls-2" d="M184.12 2.5v72.11a13.49 13.49 0 0 0 2.88 8.28V83l1 1.19a13.52 13.52 0 0 0 9.6 4h66.95Z"/><path style="fill:#fff" d="M98.15 152.55h111.68v98.52H98.15z"/><path class="cls-1" d="M163.62 165.77h32.72v16.5h-32.72zM114.9 165.77h32.72v16.5H114.9z"/><path class="cls-1" d="M114.9 165.77h32.72v16.5H114.9zM163.62 194.44h32.72v16.5h-32.72zM114.9 194.44h32.72v16.5H114.9zM163.62 221.41h32.72v16.5h-32.72zM114.9 221.41h32.72v16.5H114.9z"/></g></svg>