<svg id="Layer_1" data-name="Layer 1" xmlns="http://www.w3.org/2000/svg" viewBox="0 0 310 310"><defs><linearGradient id="linear-gradient" x1="188.09" y1="113.54" x2="264.64" y2="113.54" gradientUnits="userSpaceOnUse"><stop offset="0" stop-color="#5e459a"/><stop offset=".39" stop-color="#654a9d"/><stop offset="1" stop-color="#694d9f"/></linearGradient><style>.cls-7{fill:#fff}</style></defs><g id="GForms"><path d="m187 67-.11-.12a13.49 13.49 0 0 1-2.84-8.28V2.5H58.93a13.61 13.61 0 0 0-13.57 13.57v277.86a13.61 13.61 0 0 0 13.57 13.57h192.14a13.61 13.61 0 0 0 13.57-13.57V126.84l-76.55-58.68A13.65 13.65 0 0 1 187 67Z" style="fill:#6d51a1"/><path style="fill:#0c9d57" d="M264.63 88.18z"/><path d="m201.21 84.2-1-1.19a13.65 13.65 0 0 0 1 1.19Z" style="fill:#7ecaa7"/><path d="m200.06 82.89.11.12-.09-.12Z" style="fill:#0c7742"/><path d="M197.69 88.18a13.52 13.52 0 0 1-9.6-4l76.54 58.68V88.18h-66.94Z" style="fill:url(#linear-gradient)"/><path d="M184.12 2.5v72.11a13.49 13.49 0 0 0 2.88 8.28V83l1 1.19a13.52 13.52 0 0 0 9.6 4h66.95Z" style="fill:#b7a2ce"/><circle class="cls-7" cx="108.73" cy="165.28" r="10.28"/><circle class="cls-7" cx="108.73" cy="197.71" r="10.28"/><circle class="cls-7" cx="108.73" cy="231.61" r="10.28"/><path class="cls-7" d="M135.9 158.27h73.62v14.01H135.9zM135.9 190.71h73.62v14.01H135.9zM135.9 224.6h73.62v14.01H135.9z"/></g></svg>