<svg data-name="Layer 1" xmlns="http://www.w3.org/2000/svg" viewBox="0 0 310 310"><path d="M232.13 89.73c-.61-.91-1.6-.53-1.37.42 1.52 5.43 2 15.2-6.69 14.74-15.2-.91.27-33.81-33.55-56.27-.68-.46-1.48 0-1.1.87 2.36 4.37 3.8 18-1.48 22.8-4.26 3.8-12.08 2.81-19.72-9.42a53.19 53.19 0 0 1 .27-56.15c.65-1-.27-1.44-1-1.18-46.12 15.65-54.9 70.25-64.59 90.19-1.63 3.34-3 5.09-5.85 4.94-8.43-.49-2.51-18.5.34-24.81a.7.7 0 0 0-1.14-.8c-23.59 25.07-44.83 67.63-48.59 107a17.72 17.72 0 0 1 .49-2.77c-.46 3-.84 6-1.06 9.08a19.21 19.21 0 0 1-.23 3.61 27.43 27.43 0 0 0 0 4.33 108.15 108.15 0 0 0 216.29.23v-1.14c1.12-26.57-8.38-70.18-31.02-105.67ZM155 246.75a50.19 50.19 0 1 1 50.17-50.19A50.19 50.19 0 0 1 155 246.75Z" style="fill:#fff"/></svg>