<svg xmlns="http://www.w3.org/2000/svg" viewBox="0 0 310 310" xml:space="preserve"><g fill="#FFF"><path d="M255.352 306.193c-.953-.18-1.907-.354-2.859-.539-5.118-.996-9.427-3.377-12.945-7.277-5.852-6.486-11.395-13.319-17.772-19.249-13.308-12.375-29.366-18.305-47.55-18.35-19.216-.047-37.98-2.596-55.769-10.268-28.793-12.419-48.218-33.685-58.982-62.993-5.775-15.723-8.062-32.054-8.098-48.738-.013-6.061 2.45-9.165 8.366-10.258 7.575-1.399 15.161-1.602 22.411 1.541 8.529 3.697 12.486 10.879 13.998 19.574 1.351 7.772 2.496 15.568 5.231 23.021 8.601 23.44 25.623 36.823 49.752 41.769 9.108 1.867 18.345 1.858 27.579 2.183 28.501 1.003 53.355 11.205 74.094 30.727 7.581 7.136 14.447 15.101 21.097 23.136 5.472 6.611 6.103 14.466 2.668 22.303-3.337 7.613-9.427 11.881-17.682 13.02-.617.085-1.221.263-1.832.398h-1.707zM263.702 167.348c-.197 2.399-.25 4.821-.627 7.191-.502 3.151-2.43 5.378-5.482 6.201-8.426 2.274-16.895 2.591-25.056-.954-8.516-3.699-12.384-10.984-13.839-19.677-1.373-8.209-2.691-16.403-5.723-24.213-8.619-22.199-25.006-35.075-47.982-40.102-8.172-1.788-16.457-2.222-24.784-2.315-35.052-.392-64.039-14.006-87.275-40.112a975.334 975.334 0 0 1-10.828-12.338c-5.66-6.579-7.272-14.095-4.404-22.27 2.848-8.116 8.799-13.018 17.255-14.416 8.18-1.352 15.098 1.332 20.658 7.541 5.498 6.14 10.713 12.588 16.675 18.245 13.899 13.189 30.77 19.219 49.854 19.151 17.869-.063 35.313 2.432 51.923 9.196 33.447 13.62 54.268 38.503 64.215 72.879 3.399 11.741 4.775 23.794 5.42 35.993z"/><path d="M157.424 178.671c-3.695 0-7.39.026-11.085-.005-7.78-.066-12.608-4.932-12.611-12.677-.002-7.532-.012-15.064.003-22.596.014-7.008 5.087-12.072 12.114-12.087 7.816-.016 15.633-.022 23.449.002 6.546.02 11.726 4.925 11.84 11.488a721.04 721.04 0 0 1 .002 24.3c-.105 6.448-4.92 11.277-11.35 11.505-4.116.146-8.241.027-12.362.027v.043z"/></g></svg>