<?xml version="1.0" encoding="UTF-8"?>
<svg id="Layer_1" data-name="Layer 1" xmlns="http://www.w3.org/2000/svg" xmlns:xlink="http://www.w3.org/1999/xlink" viewBox="0 0 310 310">
  <defs>
    <style>
      .cls-1 {
        fill: #fff;
      }

      .cls-2 {
        fill: #371e56;
      }

      .cls-3 {
        fill: url(#linear-gradient);
      }
    </style>
    <linearGradient id="linear-gradient" x1="132.14" y1="328.32" x2="212.68" y2="148.69" gradientUnits="userSpaceOnUse">
      <stop offset="0" stop-color="#56c8c8"/>
      <stop offset=".89" stop-color="#eaeaea"/>
    </linearGradient>
  </defs>
  <g id="Loja_Integrada">
    <path class="cls-2" d="M257.48,108.67c26.94,0,48.78-21.84,48.78-48.78s-21.84-48.78-48.78-48.78-48.78,21.84-48.78,48.78,21.84,48.78,48.78,48.78"/>
    <path class="cls-1" d="M206.73,252.53c-52.67,0-96.69-36.95-107.61-86.34-1.7-5.42-2.63-11.19-2.63-17.18V83.08c0-25.61-20.76-46.38-46.38-46.38S3.74,57.47,3.74,83.08v63.63c0,84.42,68.75,153.83,153.15,152.14,56.85-1.14,105.94-33.89,130.43-81.39-20.12,21.56-48.77,35.06-80.59,35.06Z"/>
    <path class="cls-3" d="M303.93,147.14c0-7.37-5.98-13.35-13.35-13.35h-66.24c-7.37,0-13.35,5.98-13.35,13.35v1.87c0,31.62-25.63,57.25-57.25,57.25-25.63,0-47.33-16.85-54.62-40.07,10.92,49.39,54.93,86.34,107.61,86.34,31.82,0,60.47-13.5,80.59-35.06,10.61-20.58,16.61-43.93,16.61-68.68v-1.65Z"/>
  </g>
</svg>