<svg id="Layer_1" data-name="Layer 1" xmlns="http://www.w3.org/2000/svg" viewBox="0 0 310 310"><defs><style>.cls-1{fill:#060e9f}.cls-3{fill:#fff}</style></defs><path class="cls-1" d="M303.15 150.19c0-53.29-66.22-96.74-147.9-96.74S7.35 96.9 7.35 150.19v5.66c0 56.54 57.88 102.33 147.9 102.33 90.57 0 147.92-45.78 147.92-102.32v-5.67Z"/><ellipse cx="155.27" cy="150.14" rx="142.21" ry="90.98" style="fill:#00aeef"/><path class="cls-3" d="M108.05 121.44c-.08.14-1.49 1.61-.57 2.79 2.24 2.87 9.17 4.51 16.19 2.94 4.17-.94 9.52-5.2 14.71-9.31 5.62-4.46 11.19-8.93 16.79-10.71 5.93-1.89 9.73-1.08 12.24-.32 2.76.82 6 2.63 11.16 6.51 9.73 7.32 48.86 41.47 55.62 47.37a337.45 337.45 0 0 1 62.51-20.11c-2.85-17.53-13.52-33.6-29.7-46.7-22.54 9.47-50.08 14.41-77 1.25-.14-.06-14.72-7-29.1-6.62-21.37.5-30.63 9.75-40.43 19.54Z"/><path class="cls-3" d="M232.59 164.44c-.46-.41-46-40.26-56.33-48-6-4.48-9.29-5.62-12.78-6.07a17.43 17.43 0 0 0-6.08.58c-4.8 1.31-11.08 5.5-16.65 9.92-5.77 4.59-11.21 8.92-16.26 10.05-6.45 1.45-14.33-.26-17.92-2.69a7.94 7.94 0 0 1-3-3.26c-1.33-3.08 1.12-5.54 1.52-6l12.57-13.6c1.46-1.45 2.93-2.92 4.44-4.35a81.82 81.82 0 0 0-11.45 2.58c-4.55 1.28-8.94 2.5-13.37 2.5a127.64 127.64 0 0 1-13.61-2.1A203.8 203.8 0 0 1 47.4 90.89c-17.87 13.3-29.82 29.93-33.27 48.25 2.57.68 6.7 1.91 8.44 2.29 40.44 9 53 18.25 55.32 20.19a13.38 13.38 0 0 1 21 1.23 15.27 15.27 0 0 1 9.64-3.39 18 18 0 0 1 5.78 1 13.28 13.28 0 0 1 8.14 7.35 13.45 13.45 0 0 1 5.63-1.2 17 17 0 0 1 6.72 1.48c7.46 3.2 8.62 10.52 7.94 16a14.06 14.06 0 0 1 1.61-.09 16.05 16.05 0 0 1 16 16 15.89 15.89 0 0 1-1.92 7.57c2.41 1.35 8.54 4.41 13.92 3.73 4.3-.54 5.93-2 6.52-2.84.4-.57.82-1.23.43-1.71l-11.4-12.55s-1.88-1.78-1.26-2.46 1.8.31 2.63 1c5.81 4.85 12.89 12.17 12.89 12.17s.59 1 3.21 1.48a11.85 11.85 0 0 0 9-2.1 13.67 13.67 0 0 0 2-2 .63.63 0 0 1-.13.1c2.92-3.73-.32-7.51-.32-7.51l-13.32-15s-1.91-1.76-1.26-2.47 1.8.31 2.64 1c4.22 3.53 10.18 9.51 15.89 15.1 1.12.82 6.13 3.92 12.78-.44 4-2.65 4.84-5.89 4.73-8.35a9.53 9.53 0 0 0-2.81-5.56l-18.2-18.29s-1.92-1.64-1.24-2.47 1.8.31 2.62 1c5.8 4.85 21.49 19.24 21.49 19.24.23.16 5.65 4 12.35-.25a8.25 8.25 0 0 0 4.06-6.52 9.64 9.64 0 0 0-3.06-7.43Z"/><path class="cls-3" d="M144.33 187.63c-2.82 0-5.91 1.64-6.31 1.4-.22-.15.17-1.28.44-1.93s4-11.83-5.07-15.71c-6.93-3-11.17.37-12.62 1.88-.38.4-.55.37-.6-.14-.14-2-1-7.46-7-9.28-8.55-2.62-14 3.35-15.44 5.5a9.89 9.89 0 1 0-2.94 8.41.37.37 0 0 1 0 .34c-.42 2.45-1.19 11.37 8.15 15 3.74 1.45 6.93.37 9.57-1.48.79-.56.91-.32.8.42-.34 2.29.09 7.2 7 10 5.24 2.13 8.34 0 10.37-1.92.88-.81 1.13-.68 1.17.57a12.48 12.48 0 1 0 12.48-13.06Z"/><path class="cls-1" d="M234.35 159.67c-14-12.24-46.46-40.43-55.24-47-5-3.78-8.44-5.77-11.44-6.66a19 19 0 0 0-5.62-.88 23.67 23.67 0 0 0-7.14 1.2c-5.68 1.8-11.33 6.29-16.8 10.64l-.28.22c-5.09 4-10.36 8.24-14.34 9.13a24.21 24.21 0 0 1-5.31.59c-4.46 0-8.47-1.29-10-3.21-.25-.32-.09-.83.49-1.57l.08-.1 12.34-13.3c9.67-9.67 18.8-18.79 39.82-19.28h1c13.08 0 26.16 5.87 27.63 6.55a85.59 85.59 0 0 0 37.66 9c13.27 0 27-3.28 41.34-9.9-1.61-1.35-3.28-2.67-5-4-12.64 5.48-24.69 8.25-36.31 8.25a80.13 80.13 0 0 1-35.24-8.48c-.61-.29-15-7.1-30.07-7.11h-1.19c-17.66.42-27.6 6.68-34.29 12.18-6.5.16-12.12 1.73-17.11 3.12-4.45 1.24-8.3 2.31-12.05 2.31-1.55 0-4.33-.14-4.58-.15-4.32-.13-26.06-5.46-43.35-12-1.77 1.25-3.46 2.54-5.12 3.86 18.07 7.41 40.05 13.14 47 13.58 1.93.13 4 .34 6 .35 4.59 0 9.17-1.29 13.61-2.53 2.62-.73 5.51-1.53 8.55-2.12l-2.43 2.42-12.54 13.57c-1 1-3.13 3.65-1.72 6.93a8.78 8.78 0 0 0 3.3 3.66c3 2 8.34 3.37 13.31 3.38a24.07 24.07 0 0 0 5.31-.56c5.26-1.18 10.77-5.57 16.61-10.22 4.65-3.7 11.27-8.39 16.33-9.77a18.58 18.58 0 0 1 4.55-.62 9.14 9.14 0 0 1 1.18.07c3.34.42 6.58 1.56 12.35 5.9 10.29 7.73 55.85 47.58 56.29 48a8.77 8.77 0 0 1 2.73 6.7 7.3 7.3 0 0 1-3.64 5.82 11.07 11.07 0 0 1-6 1.86 9.86 9.86 0 0 1-5.28-1.53c-.17-.14-15.77-14.45-21.52-19.26a4.82 4.82 0 0 0-2.7-1.44 1.5 1.5 0 0 0-1.19.56c-.9 1.11.11 2.66 1.3 3.67L214 179.82a8.64 8.64 0 0 1 2.52 4.94c.14 3-1.31 5.58-4.33 7.56a11.74 11.74 0 0 1-6.46 2.14 9.36 9.36 0 0 1-5.2-1.58l-2.62-2.58c-4.78-4.7-9.71-9.56-13.33-12.58a4.84 4.84 0 0 0-2.72-1.41 1.54 1.54 0 0 0-1.15.49c-.41.46-.7 1.28.33 2.65a8.88 8.88 0 0 0 .92 1l13.3 14.94c.11.13 2.74 3.26.3 6.38l-.47.6a13.73 13.73 0 0 1-1.24 1.19 10.64 10.64 0 0 1-6.5 2.06 10.22 10.22 0 0 1-1.8-.15 4.52 4.52 0 0 1-2.62-1.1l-.16-.17c-.73-.75-7.43-7.6-13-12.23a4.59 4.59 0 0 0-2.59-1.38 1.58 1.58 0 0 0-1.2.54c-1.1 1.2.55 3 1.25 3.66l11.35 12.51a2.59 2.59 0 0 1-.43.76c-.4.56-1.78 1.94-5.9 2.45a11.57 11.57 0 0 1-1.51.09c-4.25 0-8.77-2.06-11.11-3.3a16.92 16.92 0 0 0-15.3-24.14h-.61c.3-4.26-.3-12.34-8.59-15.89a17.81 17.81 0 0 0-7.08-1.56 14.42 14.42 0 0 0-5.19.94 14.24 14.24 0 0 0-8.29-7 18.56 18.56 0 0 0-6.07-1.07 16 16 0 0 0-9.46 3 14.26 14.26 0 0 0-21.24-1.2c-3.53-2.7-17.54-11.6-55-20.11-1.82-.42-6-1.61-8.54-2.35a60.06 60.06 0 0 0-1 6.15s6.91 1.65 8.27 2c38.31 8.51 51 17.36 53.11 19A14.36 14.36 0 0 0 87.91 185a14.56 14.56 0 0 0 2.63-.24 16.74 16.74 0 0 0 10.83 12.5 14.26 14.26 0 0 0 5.11 1 13.12 13.12 0 0 0 3.27-.41c1.08 2.73 3.49 6.14 8.9 8.33a15.11 15.11 0 0 0 5.64 1.16 12.71 12.71 0 0 0 4.38-.78 16.9 16.9 0 0 0 27.77 5.36c2.73 1.52 8.5 4.27 14.33 4.27A18 18 0 0 0 173 216c5.78-.73 8.48-3 9.72-4.76a7.07 7.07 0 0 0 .6-1 16.26 16.26 0 0 0 4.59.72 15.46 15.46 0 0 0 9.26-3.31c3-2.17 5.16-5.29 5.47-7.94v-.12a15.42 15.42 0 0 0 3.1.32 17.22 17.22 0 0 0 9.51-3c5.9-3.87 6.92-8.92 6.83-12.23a15.39 15.39 0 0 0 3.14.33 16.43 16.43 0 0 0 8.91-2.74 13 13 0 0 0 6.2-10.08 13.62 13.62 0 0 0-2-8.14c9.89-4.26 32.48-12.5 59.09-18.5a59.7 59.7 0 0 0-.83-6.13 338.81 338.81 0 0 0-62.24 20.25Zm-90 52a11.5 11.5 0 0 1-11.57-11.06c0-.53-.07-1.94-1.27-1.94a2.2 2.2 0 0 0-1.41.74 8.14 8.14 0 0 1-5.68 2.57 10 10 0 0 1-3.74-.81c-6.6-2.67-6.7-7.21-6.43-9a1.66 1.66 0 0 0-.24-1.38l-.41-.37h-.41a2 2 0 0 0-1.15.47 9.65 9.65 0 0 1-5.6 2 8.7 8.7 0 0 1-3.13-.61c-8.69-3.38-8-11.59-7.58-14.06a1.18 1.18 0 0 0-.38-1.15l-.61-.51-.57.55a9 9 0 0 1-6.24 2.53 9 9 0 1 1 8.91-10.17l.31 2.42 1.33-2.05c.15-.24 3.8-5.75 10.5-5.75a13.31 13.31 0 0 1 3.92.61c5.35 1.63 6.25 6.48 6.39 8.5a1.13 1.13 0 0 0 1.1 1.23 1.49 1.49 0 0 0 1-.54 9.1 9.1 0 0 1 6.64-2.81 12.75 12.75 0 0 1 5 1.12c8.5 3.64 4.64 14.44 4.6 14.55-.73 1.79-.76 2.58-.07 3l.34.25h.25a5.94 5.94 0 0 0 1.65-.44 14.62 14.62 0 0 1 4.54-1 11.59 11.59 0 1 1-.01 23.14Z"/></svg>