<svg width="148" height="112" viewBox="0 0 148 112" fill="none" xmlns="http://www.w3.org/2000/svg">
<path d="M0.0265062 82.2813C-0.204436 79.9402 1.08929 78.571 3.29923 77.5974C12.4799 77.5865 21.3535 77.5686 30.2271 77.5507C32.1658 77.6775 33.1269 78.9509 33.8241 80.8944C33.9869 84.0923 34.0957 86.9927 34.2046 89.8932C34.2046 89.8932 34.274 90.0101 34.3869 90.192C37.6596 90.322 40.8193 90.2701 43.979 90.2182C44.7881 88.0543 45.6585 85.9111 46.3931 83.722C47.7421 79.7025 49.0223 75.6596 50.3106 71.6198C51.7265 67.1797 53.1043 62.7273 54.5261 58.2891C55.8933 54.0214 57.3264 49.7749 58.671 45.5001C59.5168 42.8109 60.5059 40.2534 63.1377 38.7831C63.5953 38.5275 64.0804 38.3215 64.8385 38.0458C67.9981 37.8782 70.8727 37.773 73.7454 37.629C74.9571 37.5682 76.1648 37.4254 77.3743 37.3199C77.3743 37.3199 77.5123 37.2676 77.6844 37.2085C77.9429 37.0262 78.0294 36.9029 78.1159 36.7796C78.1159 36.7796 78.1014 36.6795 78.1925 36.4904C78.3381 33.2782 78.3926 30.2552 78.4471 27.2322C78.7105 25.6693 79.7561 24.8554 81.4492 24.3374C90.0272 24.2976 98.3114 24.3074 106.596 24.2914C107.191 24.2902 107.786 24.1015 108.381 24C108.62 24.0685 108.86 24.137 109.256 24.3765C109.574 24.602 109.735 24.6565 109.897 24.711C110.554 25.4607 111.212 26.2104 111.912 27.25C111.969 36.9604 111.985 46.3808 112 55.8013C111.604 57.4728 110.501 58.4804 108.688 58.9768C108.122 58.8304 107.823 58.7359 107.523 58.7356C99.2817 58.7258 91.0402 58.7205 82.7988 58.7367C82.3289 58.7376 81.8594 58.9262 81.3897 59.0274C80.4631 58.1766 79.5365 57.3258 78.5546 56.187C78.3838 52.8775 78.2685 49.856 78.1531 46.8345C78.1531 46.8345 78.1026 46.7309 78.0651 46.5727C77.9185 46.3236 77.8094 46.2328 77.7003 46.142C77.7003 46.142 77.7249 46.1424 77.6911 46.0665C77.5623 45.9135 77.4672 45.8364 77.1988 45.7509C75.0082 45.7403 72.9894 45.6907 70.9743 45.7551C69.9165 45.7889 68.865 46.0223 67.8106 46.1656C66.9644 48.3211 66.0078 50.4405 65.2938 52.6394C63.4817 58.2201 61.8265 63.8521 60.0196 69.4345C57.4955 77.2331 54.8189 84.9824 52.3514 92.7986C51.1599 96.5728 47.4011 99.1936 43.6487 99.061C40.8911 98.9636 38.1272 99.0438 35.0822 99.0636C34.6171 99.2012 34.436 99.3201 34.2549 99.439C34.255 99.439 34.2483 99.4044 34.1746 99.5259C34.0302 102.796 33.9594 105.944 33.8886 109.092C33.3497 110.551 32.4109 111.588 30.5581 111.992C21.263 111.997 12.2751 111.999 3.28725 112C3.28725 112 3.31037 111.991 3.26393 111.917C3.1075 111.768 2.99751 111.695 2.88752 111.621C0.997794 110.971 0.0706428 109.675 0.0371932 107.251C0.0624304 98.7117 0.0444682 90.4965 0.0265062 82.2813ZM14.5519 85.9137C13.3859 85.9136 12.2199 85.9133 11.054 85.9135C8.50161 85.9138 8.50101 85.9139 8.50073 88.3847C8.50024 92.6368 8.50051 96.8889 8.50062 101.141C8.50067 103.579 8.5008 103.58 11.0221 103.581C14.7655 103.582 18.5089 103.581 22.2522 103.581C23.3357 103.581 24.4191 103.581 25.6974 103.581C25.6974 97.8704 25.7263 92.4013 25.63 86.9344C25.6238 86.5849 24.6571 85.9746 24.1229 85.9583C21.0574 85.8644 17.9876 85.9133 14.5519 85.9137Z" fill="white"/>
<path d="M5.52277 66.2039C3.94816 66.2222 2.37355 66.2404 0.570161 66.1597C0.227586 66.0086 0.113792 65.9565 0 65.9044C0 65.9044 0.0227696 65.9001 0.0617532 65.7401C0.114721 53.1861 0.136203 40.792 0.138107 28.3979C0.138676 24.6997 0.0844222 21.0015 0.0552866 17.3033C0.0552866 17.3033 0.0306685 17.2319 0.130297 17.0604C0.287195 15.9313 0.344464 14.9738 0.401732 14.0163C0.653799 11.0053 2.09428 8.49842 3.98389 6.28308C7.67421 1.95662 12.4222 -0.00701365 18.1489 1.88197e-05C55.4134 0.0457868 92.6781 0.0450164 129.943 0.00661681C138.055 -0.00174156 145.147 5.03919 147.334 12.5361C147.45 12.9351 147.572 13.3326 147.676 14.0513C147.671 36.076 147.679 57.7803 147.707 79.4845C147.708 80.2651 147.898 81.0454 148 81.8259C147.696 85.2086 146.374 88.2331 144.31 90.8436C142.095 93.6446 139.234 95.7053 135.703 96.6196C134.665 96.8883 133.552 96.8685 132.133 96.9816C115.452 96.9788 99.1111 96.9754 82.7702 96.972C82.2152 96.9718 81.6561 96.9275 81.1061 96.9794C79.6223 97.1192 78.9128 96.5578 79.0321 94.9925C79.1206 93.8303 79.0592 92.6567 79.0646 91.4882C79.1261 91.4738 79.1876 91.4593 79.478 91.5328C80.3179 91.68 80.9289 91.7908 81.54 91.7912C97.0518 91.8007 112.564 91.8029 128.075 91.7856C128.8 91.7848 129.525 91.5919 130.249 91.4885C137.031 91.5727 141.336 86.3595 142.249 81.0596C142.404 80.2969 142.484 79.8076 142.484 79.3183C142.49 58.9172 142.492 38.5162 142.477 18.1152C142.477 17.5214 142.288 16.9278 142.188 16.3342C141.745 11.3583 137.292 6.80825 132.798 6.27443C132.637 6.25523 132.492 6.0929 132.072 5.87006C131.069 5.67933 130.335 5.56044 129.6 5.56026C92.6272 5.55121 55.6542 5.55025 18.6813 5.56622C17.8969 5.56656 17.1126 5.77459 16.3283 5.88573C12.7971 6.65659 9.60034 8.08823 7.83614 11.3994C6.90601 13.1451 6.56099 15.2009 5.84039 17.3983C5.68441 21.7358 5.61304 25.7916 5.60028 29.8477C5.56212 41.9664 5.54693 54.0852 5.52277 66.2039Z" fill="white"/>
</svg>
