<svg data-name="Layer 1" xmlns="http://www.w3.org/2000/svg" viewBox="0 0 310 310"><defs><mask id="a" x="-304.16" y="51.74" width="608.87" height="206.53" maskUnits="userSpaceOnUse"><path d="M-304.16 51.74h608.83v206.53h-608.83z" fill="#fff" fill-rule="evenodd" data-name="a"/></mask></defs><g mask="url(#a)"><path d="M98.81 169.66a32.27 32.27 0 0 1-24.57 24.57 33 33 0 0 1-39.61-39.61 32.29 32.29 0 0 1 24.56-24.57 33 33 0 0 1 39.62 39.61zm-8.59-63.27c-31.5-12-56.68 6.78-56.68 6.78l-5-6.75H5.33v151.84h28v-47.62S48.55 222 68.87 222a59.73 59.73 0 0 0 21.35-115.6zm82.29-.15v-4.16c1.25-22.18 22.94-25.77 26-26V51.8c-7.28-.41-54.76 6.75-54.28 54.43l.06.06h-13.6v23.38h13.45v90.8h28.44v-90.84h30.09l28.25 52.51L190 258.05h32.55l40.92-76-40.88-75.85h-50.08zm99.57 0-17.52 32.81 16.15 30 34-62.8h-32.63z" fill="#fff" fill-rule="evenodd"/></g></svg>