<?xml version="1.0" encoding="UTF-8"?>
<svg id="Layer_1" data-name="Layer 1" xmlns="http://www.w3.org/2000/svg" xmlns:xlink="http://www.w3.org/1999/xlink" viewBox="0 0 304.25 302.81">
  <defs>
    <style>
      .cls-1 {
        stroke: #2783ff;
      }

      .cls-1, .cls-2, .cls-3, .cls-4 {
        fill: none;
      }

      .cls-1, .cls-2, .cls-4 {
        stroke-linecap: round;
        stroke-linejoin: round;
        stroke-width: 24px;
      }

      .cls-2 {
        stroke: #0253cf;
      }

      .cls-4 {
        stroke: #3eadff;
      }

      .cls-5 {
        clip-path: url(#clippath);
      }
    </style>
    <clipPath id="clippath">
      <rect class="cls-3" x="-17.42" y="-26.38" width="339.09" height="339.09"/>
    </clipPath>
    <clipPath id="clippath-1">
      <rect class="cls-3" x="292.07" y="-42.14" width="362.6" height="362.6"/>
    </clipPath>
  </defs>
  <g class="cls-5">
    <g>
      <path class="cls-1" d="M51.47,165.92c-8.33,5.22-15.16,12.53-19.8,21.19s-6.95,18.4-6.68,28.23c.27,9.83,3.09,19.42,8.2,27.82,5.11,8.4,12.32,15.33,20.92,20.09,8.6,4.76,18.3,7.2,28.13,7.06,9.83-.13,19.46-2.83,27.93-7.82,8.47-4.99,15.5-12.11,20.37-20.65,4.88-8.54,7.45-18.2,7.45-28.03h84.77"/>
      <path class="cls-2" d="M195.44,263.29c7.55,4.17,15.95,6.55,24.56,6.97,8.61.42,17.21-1.14,25.12-4.55,7.92-3.41,14.95-8.59,20.56-15.14,5.61-6.55,9.64-14.3,11.79-22.64,2.15-8.35,2.37-17.08.62-25.52-1.74-8.44-5.39-16.38-10.67-23.19-5.28-6.82-12.05-12.33-19.79-16.13-7.74-3.8-16.25-5.77-24.87-5.77-9.98,0-20.12,2.53-28.26,7.06l-42.39-77.71"/>
      <path class="cls-4" d="M208.64,86.65c0-14.99-5.95-29.36-16.55-39.96-10.6-10.6-24.97-16.55-39.96-16.55s-29.36,5.95-39.96,16.55c-10.6,10.6-16.55,24.97-16.55,39.96,0,21.28,10.88,39.81,28.26,49.45l-42.39,77.71"/>
    </g>
  </g>
</svg>