<svg id="Layer_1" data-name="Layer 1" xmlns="http://www.w3.org/2000/svg" xmlns:xlink="http://www.w3.org/1999/xlink" viewBox="0 0 310 310"><defs><style>.cls-1{fill:#fff;fill-rule:evenodd;}.cls-2{mask:url(#mask);}</style><mask id="mask" x="5.76" y="34.57" width="188.28" height="175.31" maskUnits="userSpaceOnUse"><g id="mask-2"><polygon id="path-1" class="cls-1" points="5.76 34.57 194.04 34.57 194.04 209.88 5.76 209.88 5.76 34.57"/></g></mask></defs><g id="squarespace-logo-tertiary-black"><g id="Group-34"><path id="Fill-1" class="cls-1" d="M67.79,162.59,162.37,68a34.1,34.1,0,0,1,48.17,0l7.37,7.37,14.74-14.74-7.37-7.37a55,55,0,0,0-77.65,0L53.05,147.85Z"/><g id="Group-5"><g class="cls-2"><path id="Fill-3" class="cls-1" d="M194,99.24,179.3,84.5,84.72,179.08a34.06,34.06,0,1,1-48.17-48.17l81.61-81.6L103.42,34.57l-81.6,81.6a54.9,54.9,0,0,0,77.64,77.65Z"/></g></g><path id="Fill-6" class="cls-1" d="M288.18,116.17a55,55,0,0,0-77.64,0L116,210.76,130.7,225.5l94.58-94.58a34.06,34.06,0,0,1,48.16,48.17l-81.6,81.61,14.74,14.73,81.6-81.6a55,55,0,0,0,0-77.66"/><path id="Fill-8" class="cls-1" d="M242.21,147.41,147.63,242a34.11,34.11,0,0,1-48.17,0l-7.37-7.37L77.35,249.37l7.37,7.36a55,55,0,0,0,77.65,0L257,162.15Z"/></g></g></svg>