<?xml version="1.0" encoding="UTF-8"?><svg id="Layer_1" xmlns="http://www.w3.org/2000/svg" viewBox="0 0 310 310"><defs><style>.cls-1{fill:#fff;fill-rule:evenodd;}</style></defs><path id="Stripe" class="cls-1" d="M134.01,95.13c0-12.69,10.41-17.57,27.66-17.57,24.73,0,55.96,7.48,80.69,20.82V21.93c-27-10.74-53.68-14.97-80.69-14.97-66.05,0-109.97,34.49-109.97,92.08,0,89.8,123.64,75.48,123.64,114.2,0,14.97-13.01,19.85-31.23,19.85-27,0-61.49-11.06-88.82-26.03v77.43c30.26,13.01,60.84,18.55,88.82,18.55,67.67,0,114.2-33.51,114.2-91.75-.33-96.96-124.29-79.71-124.29-116.15h0Z"/></svg>