<svg id="Layer_1" data-name="Layer 1" xmlns="http://www.w3.org/2000/svg" viewBox="0 0 310 310"><defs><style>.cls-1{fill:none}.cls-2{fill:#92d6e3}.cls-5{fill:#f26d76}.cls-6{fill:#35c3e4}</style></defs><g id="superlogica"><path class="cls-1" d="m206.51 103.61 50.13 50.13-50.13-50.13zM103.63 103.61v102.66l.14.14-.07.07h102.81V103.61H103.63z"/><path class="cls-2" d="m256.48 53.3-.17.17h.33l-.16-.17zM206.51 103.61l50.13 50.13 50.14-50.14-50.14-50.13-50.13 50.14z"/><path style="fill:#f9d967" d="M103.63 206.27V103.61L53.5 53.47v102.72l49.47 49.42.66.66z"/><path style="fill:#5bc4b9" d="M206.51 206.48h.17l-.09.08 1.8 1.81 48.25 48.25V153.74l-50.13-50.13v102.87z"/><path class="cls-5" d="M206.51 206.48H103.7l-.73.72-5.63 5.62-43.84 43.8h103.04l-.08-.09 50.05-50.05zM206.51 206.48l.08.08.09-.08h-.17z"/><path class="cls-6" d="M103.63 103.61zM206.51 103.61l50.13-50.14H153.77l-50.14 50.14h102.88z"/><path style="fill:#f1ed72" d="m103.63 103.61 50.14-50.14-50.14-50.14L53.5 53.47l50.13 50.14z"/><path style="fill:#f7997a" d="m102.97 207.2.73-.72.07-.07-.14-.14-.66-.66-49.47-49.42-.97.97-49.31 49.25 50.28 50.21 43.84-43.8 5.63-5.62z"/><path style="fill:#785fa4" d="m206.59 206.56-.08-.08-50.05 50.05.08.09 50.05 50.05 50.05-50.05-48.25-48.25-1.8-1.81z"/></g></svg>