<?xml version="1.0" encoding="UTF-8"?>
<svg id="Layer_1" data-name="Layer 1" xmlns="http://www.w3.org/2000/svg" viewBox="0 0 304.25 302.81">
  <defs>
    <style>
      .cls-1 {
        fill: #fff;
        stroke-width: 0px;
      }
    </style>
  </defs>
  <g id="typeform">
    <g>
      <path class="cls-1" d="m21.56,238.17c-11.27-10.47-12.76-27.36-12.77-41.95-.02-30.09-.03-61.08-.01-92.97,0-9.68,1.49-19.81,5.38-28.34,4.74-10.41,13.73-16.85,25.27-17.53,9.34-.56,18.45,2.44,24.48,9.47,8.07,9.41,10.46,23.55,10.49,36.14.1,36.85.1,69.57-.02,98.16-.02,4.51-.56,9.53-1.62,15.06-2.64,13.69-10.1,25.82-24.58,28.65-9.3,1.82-19.55-.12-26.62-6.69Z"/>
      <path class="cls-1" d="m290.49,219.47c-5.78,13.79-18.53,20.71-32.63,23.49-8.32,1.64-16.48,2.47-24.49,2.48-33.51.05-57.82.05-72.93,0-4.7-.01-9.61-.24-14.74-.69-12.09-1.04-25.81-3.99-35.19-11.97-8.36-7.11-12.03-17.4-13.24-28.24-.65-5.77-.96-11.55-.96-17.36.03-24.27.06-48.7.11-73.28.02-8.82.67-17.54,3.1-25.72,2.97-10.02,8.85-17.45,17.64-22.31,5.34-2.95,11.51-5.08,18.52-6.39,7.52-1.4,15.34-2.11,23.46-2.13,23.61-.05,47.22-.07,70.82-.05,5.78,0,11.52.29,17.23.86,18.79,1.88,37.53,8.38,44.17,27.53,3.39,9.76,4.02,21.01,4.05,31.21.08,29.4.07,52.58-.01,69.53-.05,10.76-.65,22.85-4.92,33.04Z"/>
    </g>
  </g>
</svg>