<svg width="132" height="134" viewBox="0 0 132 134" fill="none" xmlns="http://www.w3.org/2000/svg">
<path d="M94.9131 0.310472C104.652 0.255672 114.433 -0.370807 124.117 0.328188C131.772 0.880629 132.02 1.20873 131.916 8.28699C131.902 9.2776 131.898 10.2684 131.504 11.8763C127.851 21.0937 124.603 29.7012 121.313 38.2927C110.516 66.49 99.8028 94.7204 88.7773 122.828C87.322 126.538 84.2443 129.612 81.918 132.98C67.8926 133.027 53.8673 133.074 39.3783 132.756C38.9155 132 38.9163 131.608 39.2372 131.001C39.7097 129.257 39.8622 127.728 40.3242 126.035C41.4155 123.964 42.1971 122.056 43.3185 119.997C43.7471 119.358 43.7607 118.842 43.9353 118.388C57.4422 83.27 70.9551 48.1542 84.4873 13.0458C86.5588 7.67128 88.1602 1.87094 94.9131 0.310472Z" fill="#00A3FF"/>
<path d="M0.00624594 31.5584C3.11669 27.8967 6.80011 26.8764 11.2398 27.0621C18.5357 27.3673 25.8539 27.1793 33.1623 27.1334C38.0837 27.1024 41.1532 29.6504 42.9605 33.9815C46.4373 42.3133 49.6016 50.7884 53.4063 58.9664C56.4043 65.4102 53.6713 71.1938 52.3704 77.1699C49.3079 91.2381 46.0863 105.272 42.9539 119.734C42.1971 122.056 41.4155 123.964 40.0555 125.866C38.6232 124.956 37.7693 124.051 36.8739 122.779C34.2143 115.702 31.6619 108.967 28.9656 102.289C20.5921 81.5512 12.2014 60.8199 3.66626 40.1484C3.13912 38.8717 1.30706 38.1338 0.0821374 37.1452C0.0321404 35.4242 -0.0178581 33.7032 0.00624594 31.5584Z" fill="#001A9E"/>
</svg>
