<svg id="Layer_1" data-name="Layer 1" xmlns="http://www.w3.org/2000/svg" viewBox="0 0 310 310"><defs><style>.cls-1{fill:#fff;}</style></defs><path id="webflow" class="cls-1" d="M226.92,112.19s-24.17,75.73-26,82.16c-.71-6.31-18.34-142.41-18.34-142.41-41.19,0-63.1,29.29-74.77,60.25,0,0-29.41,76-31.8,82.28-.11-5.95-4.52-81.56-4.52-81.56-2.5-38-37.15-61-65.25-61L40.09,258.06c43.11-.12,66.33-29.29,78.47-60.37,0,0,25.84-67,26.91-70,.24,2.86,18.58,130.39,18.58,130.39,43.22,0,66.56-27.27,79.06-57.16l60.61-149C261,51.94,238.47,81.12,226.92,112.19Z"/></svg>