<svg width="148" height="149" viewBox="0 0 148 149" fill="none" xmlns="http://www.w3.org/2000/svg">
<path d="M148 43.5043V36.4679L138.584 33.5609L137.858 30.1249L144.498 23.2867L141.062 16.8775L131.482 19.3551L129.103 16.8775L131.581 7.56164L125.271 3.72949L118.235 10.6671L114.7 9.60998L112.388 0.888519H104.921L102.873 9.60998L98.8755 10.6671L92.3675 3.72949L85.9586 7.3634L88.6338 16.5145L85.9586 19.2895L76.5436 16.8118L72.9094 23.1213L79.7479 30.0593L78.7899 33.4956L69.3746 36.0717L69.2751 43.2408L78.7896 45.7184L79.5825 49.7153L72.9419 56.29L76.3779 62.4015L86.1562 59.9239L88.535 62.7649L85.8595 71.6517L92.4338 75.4836L98.8427 68.7445L102.675 69.7028L104.888 79.1175L112.354 79.2176L114.567 69.7031L118.399 68.5466L125.238 75.6824L131.977 71.6849L129.07 62.4347L131.647 59.7594L141.161 62.6664L144.564 56.0261L137.66 49.8151L138.386 45.8178L148 43.5043ZM108.621 58.4368C98.2815 58.4368 89.857 50.0458 89.857 39.6722C89.857 29.2985 98.2477 20.9079 108.621 20.9079C118.995 20.9079 127.386 29.2985 127.386 39.6722C127.386 50.0783 118.995 58.4368 108.621 58.4368Z" fill="#DCDAE0"/>
<path d="M132.506 63.8545L148 68.6447V81.8262L129.797 86.2534L128.443 93.7522L141.294 105.414L134.951 117.934L117.112 112.417L112.288 117.438L117.805 134.782L105.153 142.282L92.3022 128.903L85.1334 131.082L80.9702 148.922L66.9636 148.757L62.8006 131.05L55.6319 129.2L43.6073 141.886L31.2516 134.717L36.2732 118.033L31.7472 112.715L13.4122 117.373L6.90386 105.876L19.425 93.5212L17.8391 85.9891L0 81.3306L0.16509 67.8192L17.8391 62.9628L19.722 56.4551L6.87103 43.4387L13.7096 31.612L31.417 36.2703L36.4386 31.0833L31.417 13.9049L43.4419 7.06669L55.599 20.0828L63.0983 18.0676L66.9304 0.888519H80.938L84.7698 16.052L77.3041 14.1031L75.2226 13.5409L74.1323 15.4242L70.498 21.734L69.408 23.5841L70.9276 25.1037L76.6093 30.8519L76.5105 31.1824L68.6479 33.3299L66.5999 33.8911L66.5668 36.0054L66.5001 40.2669C50.8082 43.7026 38.9816 57.7101 38.9816 74.4589C38.9816 93.7188 54.6079 109.378 73.9002 109.378C90.584 109.378 104.525 97.6829 107.993 82.0238L112.354 82.0901L114.633 82.1232L115.162 79.9101L117.012 71.9816L117.64 71.783L123.29 77.6638L124.842 79.2816L126.757 78.1594L133.497 74.1615L135.413 73.0056L134.753 70.8578L132.506 63.8545Z" fill="#73CB0B"/>
</svg>
