<?xml version="1.0" encoding="UTF-8"?><svg id="Layer_1" xmlns="http://www.w3.org/2000/svg" viewBox="0 0 310 310"><defs><style>.cls-1{fill:#fff;}.cls-2{fill:#7d57a4;fill-rule:evenodd;}</style></defs><g id="Woocommerce"><path class="cls-2" d="M33.5,66.18h242.99c15.36,0,27.8,12.45,27.8,27.8h0v92.72c0,15.35-12.44,27.79-27.79,27.79h-87.16l11.93,29.32-52.65-29.32H33.47c-15.34-.02-27.76-12.45-27.77-27.79V94c0-15.36,12.45-27.81,27.8-27.82Z"/><path class="cls-1" d="M20.73,91.37c1.86-2.33,4.66-3.71,7.64-3.77,6.2-.43,9.75,2.49,10.67,8.77,3.82,25.45,7.92,47.06,12.28,64.82l26.75-50.86c2.42-4.59,5.48-7.02,9.18-7.29,5.36-.38,8.71,3.04,10.05,10.24,2.52,14.24,6.39,28.2,11.55,41.71,3.21-30.98,8.57-53.37,16.09-67.18,1.48-3.16,4.58-5.24,8.06-5.41,2.78-.23,5.54,.64,7.7,2.41,2.23,1.68,3.59,4.26,3.73,7.05,.2,2.03-.21,4.08-1.18,5.88-4.76,8.84-8.68,23.53-11.75,44.08-3.03,19.84-4.15,35.35-3.36,46.55,.28,2.74-.21,5.51-1.42,7.99-1.19,2.55-3.69,4.24-6.5,4.41-3.22,.24-6.43-1.28-9.66-4.52-11.34-11.63-20.35-28.94-27.03-51.93-7.83,15.67-13.71,27.39-17.63,35.16-7.17,13.79-13.31,20.86-18.43,21.21-3.32,.24-6.15-2.55-8.48-8.37-6.27-15.96-12.99-46.83-20.17-92.62-.57-2.92,.12-5.94,1.92-8.31Z"/><path class="cls-1" d="M283.03,110.54c-4.08-7.37-11.23-12.54-19.51-14.1-2.18-.46-4.4-.7-6.63-.71-11.69,0-21.24,6.08-28.65,18.25-6.31,10.35-9.6,22.25-9.48,34.37,0,9.4,1.96,17.46,5.88,24.17,4.08,7.38,11.24,12.55,19.52,14.1,2.17,.47,4.39,.71,6.62,.72,11.81,0,21.35-6.08,28.64-18.25,6.31-10.42,9.6-22.39,9.5-34.57,0-9.4-1.96-17.4-5.88-23.98Zm-15.39,33.86c-1.67,7.99-4.76,14.01-9.28,18.06-3.58,3.22-6.86,4.53-9.85,3.94-2.98-.6-5.38-3.23-7.18-7.9-1.38-3.54-2.11-7.3-2.15-11.1-.01-3.01,.29-6.01,.89-8.95,1.16-5.21,3.35-10.14,6.44-14.5,4.06-5.96,8.3-8.46,12.71-7.51,2.98,.6,5.37,3.23,7.17,7.87,1.38,3.54,2.1,7.3,2.14,11.09,.02,3.02-.28,6.04-.89,9Z"/><path class="cls-1" d="M206.55,110.54c-4.08-7.37-11.23-12.54-19.51-14.1-2.18-.46-4.4-.7-6.63-.71-11.7,0-21.24,6.08-28.64,18.25-6.32,10.34-9.61,22.25-9.5,34.37,0,9.4,1.96,17.46,5.88,24.17,4.07,7.38,11.23,12.55,19.52,14.1,2.17,.47,4.39,.71,6.62,.72,11.81,0,21.36-6.08,28.65-18.25,6.33-10.41,9.65-22.38,9.58-34.57,0-9.4-1.96-17.4-5.88-23.98h-.09Zm-15.39,33.86c-1.67,8.01-4.77,14.03-9.31,18.09-3.59,3.22-6.87,4.53-9.85,3.94-2.98-.6-5.36-3.24-7.16-7.92-1.38-3.54-2.11-7.3-2.15-11.1-.01-3.01,.29-6.01,.89-8.95,1.17-5.21,3.36-10.14,6.44-14.5,4.04-5.95,8.28-8.44,12.71-7.49,2.98,.6,5.37,3.23,7.16,7.87,1.38,3.54,2.11,7.3,2.15,11.09,.01,3.01-.29,6.01-.89,8.95v.02Z"/></g></svg>